<svg width="393" height="216" viewBox="0 0 393 216" fill="none" xmlns="http://www.w3.org/2000/svg">
<path fill-rule="evenodd" clip-rule="evenodd" d="M0 111.694C2.37257 111.694 5.25356 110.969 6.94825 111.936C8.38874 112.822 8.47348 115.724 8.98189 117.82C10.6766 123.945 12.2865 130.151 13.9812 136.277C14.1507 136.922 14.6591 137.405 15.0828 137.969C15.4217 137.325 15.9301 136.76 16.0149 136.116C17.2012 125.638 18.3875 115.24 19.5737 104.762C19.6585 103.956 19.8279 103.151 20.0821 102.345C22.1158 107.825 23.4715 113.387 26.0136 118.787C28.2167 108.47 29.1488 98.0728 30.9282 87.7561C31.6061 94.8488 32.3687 101.942 33.0466 109.034C33.6397 115.402 34.3176 121.688 34.9955 128.056C35.0802 128.7 35.5886 129.265 35.9276 129.909C36.1818 129.345 36.6902 128.781 36.7749 128.136C37.7917 119.754 38.7238 111.372 40.0796 102.909C40.8422 105.407 41.7743 107.906 42.3674 110.404C42.7911 112.097 43.6384 112.581 45.3331 112.5C48.553 112.339 51.773 112.339 54.9929 112.5C56.7723 112.581 57.4502 111.936 57.5349 110.324C57.9586 103.634 58.467 97.025 58.8907 90.3352C59.0602 87.9979 59.2296 85.6605 59.738 83.3231C60.2464 86.7889 60.8396 90.2546 61.348 93.7204C62.0259 98.0728 62.7037 102.425 63.3816 106.777C63.4664 107.261 63.9748 107.745 64.3137 108.228C64.5679 107.745 65.0763 107.18 65.0763 106.697C65.3305 101.861 65.4153 97.1056 65.6695 92.2696C65.7542 90.98 65.8389 89.6904 66.0931 88.4009C66.4321 95.0906 66.771 101.861 67.0252 108.551C67.11 110.243 67.11 111.936 67.2794 113.628C67.3642 114.193 67.7878 114.676 68.1268 115.16C68.4657 114.676 68.9741 114.193 68.9741 113.628C69.3131 109.921 69.5673 106.133 69.9062 102.345C70.5841 93.5592 71.3467 84.7739 72.2788 75.908C72.4482 78.2454 72.6177 80.5021 72.7025 82.8395C73.2956 96.622 73.8887 110.324 74.4819 124.106C74.4819 124.59 74.4819 125.073 74.5666 125.476C74.7361 126.041 75.075 126.524 75.414 127.088C75.7529 126.524 76.2613 125.96 76.3461 125.396C76.685 119.915 76.9392 114.354 77.1934 108.873C77.7865 97.3474 78.3797 85.8217 78.9728 74.296C78.9728 74.0542 79.0576 73.8124 79.3118 73.5706C79.566 76.6334 79.8202 79.6155 79.9896 82.6783C81.2607 101.297 82.5317 119.835 83.8874 138.453C83.9722 139.34 84.4806 140.226 84.8195 141.113C85.0737 140.226 85.6669 139.34 85.5821 138.372C85.5821 121.205 85.4127 103.956 85.4127 86.7889C85.4127 85.6605 85.4127 84.6127 85.6669 83.4843C86.26 90.8188 86.7684 98.1533 87.3616 105.488C88.3784 119.351 89.3952 133.214 90.412 147.077C90.412 147.641 90.412 148.286 90.5815 148.85C90.6662 149.173 91.1746 149.414 91.4288 149.737C91.683 149.414 92.1067 149.092 92.1915 148.77C92.3609 148.286 92.1915 147.722 92.1915 147.238C92.1915 131.521 92.1915 115.805 92.1915 100.088H92.2762C92.5304 104.198 92.7846 108.309 92.9541 112.419C93.5472 125.638 94.1404 138.856 94.8182 152.074C94.8182 152.88 95.4114 153.606 95.6656 154.412C95.9198 153.686 96.5129 152.88 96.5129 152.155C96.6824 132.005 96.8519 111.936 97.0213 91.786C97.0213 90.7382 97.0213 89.6904 97.3603 88.7232C97.6992 93.9622 98.0382 99.2011 98.2924 104.44C99.3939 123.139 100.411 141.757 101.512 160.456C101.512 160.859 101.512 161.262 101.597 161.585C101.682 161.907 102.021 162.149 102.275 162.391C102.614 162.068 103.038 161.907 103.122 161.504C103.292 161.021 103.207 160.456 103.207 159.973C103.207 140.065 103.292 120.157 103.292 100.168C103.292 98.7981 103.292 97.3474 103.546 95.9772C104.054 105.73 104.647 115.563 105.156 125.315C105.918 139.259 106.596 153.203 107.359 167.146C107.359 167.791 107.952 168.355 108.206 169C108.461 168.355 108.969 167.71 108.969 167.066C109.138 144.256 109.308 121.366 109.477 98.5564C109.477 97.5892 109.477 96.7026 109.816 95.7354C110.071 99.2817 110.325 102.828 110.494 106.374C111.511 124.187 112.528 141.999 113.629 159.812C113.714 160.779 114.223 161.746 114.561 162.713C114.816 161.746 115.409 160.779 115.409 159.812C115.324 144.417 115.239 129.023 115.07 113.628C115.07 112.5 115.07 111.452 115.324 110.324C115.663 116.53 115.917 122.736 116.256 128.942C116.68 138.05 117.103 147.238 117.612 156.346C117.612 156.991 118.205 157.555 118.544 158.2C118.798 157.555 119.307 156.91 119.307 156.265C119.476 138.775 119.646 121.205 119.815 103.715C119.815 103.231 119.815 102.667 120.069 102.183C120.493 115.24 121.001 128.217 121.425 141.274C121.51 144.74 121.679 148.125 121.849 151.591C121.849 152.235 122.357 152.8 122.611 153.364C122.95 152.719 123.459 152.155 123.459 151.51C124.052 130.554 124.56 109.598 125.153 88.6427C125.153 88.0785 125.238 87.5143 125.492 86.9501C125.746 92.995 126.001 99.0399 126.255 105.004C126.763 118.061 127.187 131.118 127.695 144.095C127.695 144.337 127.611 144.659 127.695 144.901C127.95 145.304 128.288 145.707 128.543 146.029C128.797 145.626 129.305 145.304 129.39 144.901C129.56 143.289 129.56 141.677 129.56 140.065C129.983 124.026 130.492 107.986 130.915 92.0278C130.915 91.2218 130.915 90.4964 131.169 89.6904C131.508 101.216 131.847 112.742 132.186 124.348C132.356 128.862 132.44 133.456 132.61 137.969C132.61 138.534 133.118 139.098 133.373 139.743C133.627 139.098 134.22 138.534 134.22 137.889C134.559 121.447 134.898 105.085 135.152 88.6427C135.152 87.1113 135.152 85.5799 135.576 83.9679C135.915 89.2068 136.169 94.4458 136.508 99.6847C137.101 110.082 137.609 120.399 138.202 130.796C138.202 131.441 138.796 132.005 139.135 132.569C139.389 131.924 139.812 131.36 139.812 130.796C139.982 118.384 140.151 105.971 140.321 93.6398C140.321 92.5114 140.321 91.3024 140.66 90.174C141.083 99.3623 141.507 108.551 141.931 117.739C142.016 120.399 142.1 123.058 142.354 125.718C142.439 126.363 142.948 126.927 143.287 127.491C143.541 126.927 143.964 126.282 143.964 125.718C144.303 113.951 144.473 102.264 144.727 90.4964C144.727 89.368 144.727 88.1591 145.066 87.0307C145.32 92.592 145.659 98.1534 145.913 103.715C146.168 108.631 146.337 113.548 146.676 118.464C146.676 119.109 147.184 119.673 147.439 120.238C147.777 119.593 148.286 119.029 148.371 118.384C148.964 106.213 149.472 94.0428 149.981 81.7917C149.981 81.0663 150.065 80.3409 150.32 79.6156C150.574 83.3231 150.913 87.0307 151.167 90.8188C151.675 97.2668 152.099 103.795 152.523 110.243C152.523 110.566 152.438 110.969 152.607 111.21C152.862 111.613 153.201 111.936 153.539 112.258C153.794 111.855 154.217 111.452 154.302 111.049C154.472 110.485 154.387 109.921 154.387 109.276C154.81 100.491 155.319 91.786 156.081 83.0007C156.505 87.1113 156.929 91.3024 157.268 95.413C157.691 100.491 158.2 105.488 158.624 110.566C158.708 112.016 159.301 112.581 160.911 112.581C169.131 112.5 177.435 112.5 185.654 112.581C187.01 112.581 187.772 112.178 188.196 110.888C189.043 108.148 190.145 105.488 191.246 102.264C192.263 107.019 193.195 111.21 194.127 115.321C195.229 120.56 196.331 125.718 197.517 130.957C197.686 131.683 198.279 132.247 198.703 132.892C198.957 132.247 199.381 131.602 199.466 130.877C200.313 118.948 201.16 107.019 202.008 95.1712C202.008 94.9294 202.092 94.6876 202.431 94.4458C202.94 96.2996 203.448 98.0728 203.872 99.9265C205.058 104.359 206.16 108.873 207.346 113.306C207.516 114.031 208.193 114.596 208.617 115.24C208.956 114.596 209.464 113.951 209.549 113.225C210.99 104.521 212.345 95.816 213.786 87.0307C213.786 86.8695 213.871 86.7889 214.125 86.1441C214.379 89.6098 214.718 92.592 214.887 95.5742C215.904 109.195 216.921 122.897 217.938 136.519C218.023 137.566 218.531 138.614 218.87 139.662C219.209 138.695 219.802 137.728 219.972 136.68C221.243 124.348 222.514 112.016 223.785 99.2011C224.124 100.007 224.378 100.33 224.462 100.652C225.564 104.44 226.666 108.309 227.598 112.097C227.937 113.548 228.699 114.112 230.224 114.112C241.155 114.031 252.086 114.112 263.017 114.031C264.457 114.031 265.135 114.434 265.644 115.805C267.338 120.641 269.202 125.476 270.982 130.312C271.236 130.957 271.829 131.521 272.253 132.086C272.507 131.441 273.016 130.796 273.016 130.151C273.778 114.918 274.456 99.6847 275.219 84.4515C275.219 84.0485 275.303 83.5649 275.727 83.0813C276.235 85.8217 276.659 88.5621 277.168 91.3024C278.1 96.622 278.947 101.942 279.879 107.261C279.964 107.906 280.472 108.389 280.811 108.954C281.15 108.389 281.658 107.825 281.743 107.261C282.506 102.909 283.099 98.5563 284.116 94.204C284.37 98.0728 284.624 101.942 284.878 105.81C285.81 121.366 286.743 136.922 287.675 152.477C287.675 152.638 287.675 152.719 287.675 152.88C287.929 153.364 288.183 153.928 288.522 154.412C288.861 153.928 289.369 153.444 289.454 152.961C289.793 150.865 289.962 148.689 290.217 146.593C291.488 134.665 292.759 122.736 294.03 110.807C294.03 110.566 294.114 110.324 294.199 110.163C294.369 110.163 294.623 110.163 294.792 110.163C294.792 112.419 294.792 114.757 294.792 117.014C294.792 118.867 294.792 120.641 294.962 122.494C294.962 122.897 295.47 123.3 295.809 123.623C296.148 123.3 296.572 123.058 296.741 122.736C297.504 120.963 298.266 119.27 298.86 117.497C299.283 115.966 300.215 115.563 301.825 115.563C310.807 115.643 319.874 115.563 328.856 115.643C330.805 115.643 331.652 115.079 332.16 113.306C332.584 111.533 333.262 109.84 334.194 108.148C334.872 111.775 335.55 115.482 336.143 119.109C338.261 131.038 340.295 143.047 342.413 154.976C342.498 155.54 343.091 156.104 343.43 156.588C343.684 156.024 344.193 155.379 344.277 154.815C345.21 137.969 346.057 121.124 346.904 104.279C347.328 95.413 347.752 86.5471 348.26 77.6006C348.26 77.3588 348.345 77.117 348.768 76.8752C349.362 79.8573 349.955 82.8395 350.548 85.9023C352.751 97.5086 355.039 109.115 357.242 120.721C357.327 120.963 357.242 121.285 357.411 121.447C357.666 121.85 358.005 122.252 358.343 122.575C358.682 122.172 359.191 121.769 359.276 121.285C360.038 116.611 360.631 111.936 361.394 107.18C361.563 105.81 361.818 104.521 362.411 103.151C362.75 105.085 363.089 106.939 363.343 108.873C365.122 120.318 366.902 131.844 368.766 143.289C368.851 143.853 369.444 144.417 369.783 144.901C370.037 144.337 370.545 143.692 370.63 143.128C371.308 132.972 371.901 122.817 372.494 112.581C373.087 102.748 373.68 92.9144 374.274 83.0007C374.274 82.5977 374.443 82.1141 374.782 81.7111C376.477 87.7561 378.171 93.801 379.866 99.8459C381.137 104.359 382.408 108.873 383.594 113.387C383.933 114.918 384.696 115.402 386.306 115.321C388.509 115.16 390.797 115.24 393 115.16C393 114.676 393 114.112 393 113.628C390.797 113.709 388.679 113.709 386.475 113.79C384.95 113.87 385.12 112.742 384.865 111.936C382.069 102.022 379.358 92.1084 376.646 82.1947C376.138 80.2603 375.545 78.326 375.036 76.3916C374.867 75.8274 374.528 75.2632 374.274 74.7796C374.104 74.7796 373.85 74.7796 373.68 74.7796C373.511 75.4244 373.172 76.0692 373.087 76.7946C372.325 89.0457 371.647 101.297 370.884 113.548C370.461 120.721 370.037 127.894 369.274 135.148C368.766 131.844 368.173 128.459 367.664 125.154C366.224 115.966 364.783 106.777 363.258 97.6698C363.173 96.9444 362.58 96.2996 362.157 95.6548C361.818 96.3802 361.309 97.025 361.14 97.7504C360.208 103.795 359.36 109.84 358.174 115.885C357.666 113.225 357.072 110.566 356.564 107.906C354.107 95.0906 351.649 82.2753 349.107 69.4601C349.023 68.8153 348.345 68.3317 348.006 67.6869C347.752 68.3317 347.243 68.8959 347.243 69.5407C346.481 83.9679 345.718 98.3146 345.04 112.742C344.447 124.106 343.854 135.551 342.922 146.996C342.413 144.095 341.905 141.193 341.397 138.292C339.448 127.169 337.499 116.046 335.55 104.924C335.465 104.359 334.957 103.795 334.702 103.312C334.279 103.795 333.686 104.279 333.431 104.843C332.584 107.261 331.737 109.598 330.974 112.097C330.55 113.548 329.873 114.031 328.263 114.031C319.535 113.951 310.807 114.031 302.08 114.031C298.775 114.031 298.775 114.031 297.589 116.933C297.419 117.336 297.25 117.658 297.08 118.061C296.826 118.061 296.572 117.981 296.318 117.981C296.318 113.225 296.318 108.47 296.318 103.634C296.318 101.216 296.233 98.7981 296.063 96.4608C296.063 95.9772 295.555 95.4936 295.216 95.01C294.962 95.4936 294.453 95.8966 294.369 96.3802C293.521 103.956 292.674 111.613 291.827 119.19C290.979 126.847 290.132 134.504 289.03 142.241C288.776 138.05 288.437 133.859 288.183 129.668C287.336 115.079 286.488 100.491 285.556 85.9023C285.556 85.3381 285.048 84.7739 284.709 84.1291C284.37 84.6933 283.777 85.1769 283.692 85.7411C282.93 90.577 282.167 95.3324 281.489 100.168C281.404 100.733 281.32 101.297 280.811 101.861C279.964 96.7832 279.116 91.7054 278.269 86.7083C277.591 82.5977 276.913 78.4872 276.151 74.3766C276.066 73.8124 275.558 73.3288 275.219 72.8452C274.88 73.4094 274.371 73.9736 274.371 74.5378C273.863 84.9351 273.354 95.413 272.846 105.81C272.507 112.661 272.168 119.512 271.575 126.444C271.406 126.041 271.151 125.638 270.982 125.154C269.626 121.608 268.27 118.061 267.084 114.515C266.576 113.064 265.813 112.5 264.203 112.5C253.527 112.581 242.765 112.5 232.089 112.581C230.309 112.581 229.462 112.258 229.038 110.404C227.767 105.246 226.242 100.088 224.801 95.01C224.632 94.4458 224.124 94.0428 223.785 93.4786C223.446 94.0428 222.937 94.607 222.853 95.1712C221.751 105.407 220.819 115.563 219.802 125.799C219.717 126.363 219.717 126.927 219.209 127.491C218.955 124.751 218.785 122.011 218.531 119.27C217.514 105.971 216.582 92.592 215.481 79.2931C215.396 78.729 214.887 78.1648 214.549 77.6006C214.21 78.1648 213.701 78.729 213.616 79.2931C212.006 88.8844 210.481 98.5563 208.956 108.148C208.871 108.712 208.702 109.276 208.448 110.243C206.414 102.264 204.38 94.7682 202.431 87.2725C202.008 87.2725 201.669 87.3531 201.245 87.3531C199.974 99.9265 199.466 112.661 198.025 125.315C196.585 118.948 195.229 112.5 193.873 106.133C193.45 104.198 193.026 102.183 192.602 100.249C192.433 99.6847 192.009 99.2011 191.67 98.6369C191.246 99.1205 190.569 99.6041 190.399 100.168C189.213 103.312 188.111 106.536 186.925 109.76C186.755 110.324 185.993 110.969 185.484 110.969C177.265 111.049 168.961 111.049 160.488 111.049C160.149 107.906 159.895 104.843 159.556 101.78C158.624 91.4636 157.691 81.0663 156.675 70.7496C156.59 70.1049 156.081 69.5406 155.743 68.9765C155.488 69.5406 155.065 70.1855 154.98 70.7496C154.472 79.132 154.048 87.5949 153.285 96.0578C153.031 93.3174 152.862 90.577 152.607 87.8367C152.014 79.9379 151.506 72.0392 150.828 64.1405C150.743 63.5763 150.235 63.0121 149.896 62.4479C149.642 63.0121 149.218 63.6569 149.133 64.2211C148.625 74.6184 148.116 84.9351 147.693 95.3324C147.608 96.4608 147.608 97.5086 147.269 98.6369C147.015 93.1562 146.676 87.6755 146.422 82.1947C146.083 75.102 145.744 68.0899 145.49 60.9971C145.49 60.5135 145.49 60.1105 145.32 59.7076C145.235 59.4658 144.812 59.224 144.558 59.224C144.303 59.224 143.964 59.5464 143.88 59.7882C143.795 60.2718 143.795 60.8359 143.795 61.3195C143.541 73.5706 143.202 85.8217 142.693 98.1534C142.439 93.3174 142.185 88.4009 142.016 83.5649C141.677 75.5856 141.338 67.6063 140.999 59.627C140.999 59.224 141.083 58.821 140.914 58.4986C140.745 58.0956 140.406 57.8538 140.151 57.5314C139.812 57.9344 139.473 58.2568 139.304 58.6598C139.135 59.0628 139.304 59.5464 139.304 60.03C139.135 73.6512 138.965 87.2725 138.796 100.894C138.796 101.861 138.796 102.828 138.457 103.795C138.033 96.3802 137.609 88.965 137.186 81.5499C136.762 73.7318 136.338 65.8331 135.915 58.015C135.915 57.4508 135.406 56.806 135.152 56.2418C134.898 56.8866 134.305 57.4508 134.305 58.0956C133.966 71.072 133.712 84.0485 133.457 97.025C133.457 97.428 133.373 97.831 133.203 98.1534C133.034 90.7382 132.779 83.3231 132.61 75.8274C132.44 69.863 132.271 63.8987 132.102 57.9344C132.102 57.2896 131.508 56.6448 131.254 56C131 56.6448 130.407 57.2896 130.407 57.9344C129.898 76.714 129.39 95.413 128.882 114.193C128.882 114.596 128.882 114.999 128.458 115.402C128.373 114.596 128.288 113.79 128.288 112.984C127.611 94.8488 126.933 76.6334 126.255 58.4986C126.255 58.015 126.34 57.5314 126.17 57.1284C126.085 56.806 125.662 56.403 125.408 56.4836C125.153 56.4836 124.73 56.8866 124.645 57.209C124.475 57.6926 124.56 58.2568 124.56 58.7404C124.052 78.8096 123.459 98.7981 122.95 118.867C122.95 119.754 122.865 120.641 122.611 121.527C122.357 113.709 122.018 105.971 121.764 98.1534C121.34 85.4187 120.917 72.7646 120.408 60.03C120.408 59.3852 119.815 58.821 119.561 58.1762C119.307 58.821 118.798 59.4658 118.798 60.1105C118.629 79.2931 118.544 98.5563 118.375 117.739C118.375 119.593 118.375 121.527 118.036 123.381C117.781 118.303 117.442 113.306 117.273 108.228C116.51 93.1562 115.832 78.1648 115.07 63.0927C115.07 62.5285 114.561 61.8837 114.307 61.3195C114.053 61.9643 113.46 62.5285 113.46 63.1733C113.545 81.3081 113.714 99.3623 113.884 117.497C113.884 119.835 113.884 122.172 113.629 124.509C113.206 117.497 112.782 110.404 112.358 103.392C111.68 91.383 111.003 79.4543 110.24 67.4451C110.24 66.8809 109.732 66.2361 109.477 65.6719C109.223 66.3167 108.63 66.8809 108.63 67.5257C108.461 88.7233 108.291 110.001 108.206 131.199C108.206 132.892 108.206 134.584 107.867 136.277C107.613 131.683 107.274 127.169 107.105 122.575C106.088 102.747 105.071 82.9201 104.054 63.0927C104.054 62.7703 104.139 62.3673 103.97 62.1255C103.715 61.6419 103.376 61.3195 103.038 60.9165C102.783 61.3195 102.444 61.7225 102.275 62.1255C102.19 62.5285 102.275 63.0121 102.275 63.4957C102.19 84.3709 102.19 105.327 102.105 126.202C102.105 127.33 102.105 128.539 101.851 129.668C101.512 124.59 101.258 119.432 100.919 114.354C99.9023 96.3802 98.8855 78.4872 97.784 60.5135C97.6992 59.5464 97.1061 58.6598 96.7671 57.7732C96.5129 58.6598 96.0045 59.627 96.0045 60.5135C95.8351 78.6484 95.6656 96.8638 95.5808 114.999C95.5808 116.127 95.5808 117.336 95.2419 118.464C94.903 112.097 94.6488 105.81 94.3098 99.4429C93.6319 85.5799 92.9541 71.7168 92.3609 57.8538C92.3609 57.612 92.4457 57.2896 92.2762 57.0478C92.022 56.6448 91.683 56.3224 91.4288 56C91.1746 56.403 90.8357 56.7254 90.6662 57.209C90.4968 57.612 90.6662 58.0956 90.6662 58.5792C90.751 78.8902 90.8357 99.2011 90.9204 119.512C90.9204 120.399 90.9204 121.366 90.5815 122.252C90.1578 117.175 89.8189 112.178 89.3952 107.1C88.2089 90.7382 86.9379 74.3766 85.7516 57.9344C85.7516 57.612 85.8363 57.209 85.6669 56.9672C85.4974 56.6448 85.0737 56.403 84.7348 56.1612C84.4806 56.403 84.1417 56.7254 84.0569 56.9672C83.9722 57.4508 84.0569 58.015 84.0569 58.4986C84.0569 76.0692 84.0569 93.6398 83.8874 111.291C83.718 108.631 83.4638 105.971 83.2943 103.312C82.2775 88.6427 81.2607 74.0542 80.2439 59.3852C80.1591 58.5792 79.9049 57.6926 79.8202 56.8866C79.566 56.8866 79.3118 56.8866 78.9728 56.8866C78.8034 57.5314 78.4644 58.1762 78.3797 58.821C77.6171 73.2482 76.8545 87.5949 76.1766 102.022C76.0918 103.473 75.9224 104.924 75.5834 106.374C75.1598 95.9772 74.6514 85.4993 74.2277 75.102C74.0582 70.669 73.804 66.3167 73.5498 61.8837C73.5498 61.2389 72.9567 60.6748 72.7025 60.03C72.4482 60.6748 71.9398 61.3195 71.8551 61.9643C70.8383 74.3766 69.8215 86.7889 68.5504 99.2011C68.2962 94.7682 68.042 90.3352 67.8726 85.9829C67.5336 79.2932 67.2794 72.6034 66.9405 65.9137C66.9405 65.3495 66.4321 64.7047 66.1779 64.1405C65.8389 64.7853 65.3305 65.3495 65.3305 65.9943C64.9069 75.8274 64.5679 85.7411 64.229 95.5742C64.229 96.0578 64.1442 96.4608 63.89 96.9444C63.2122 92.4308 62.4495 87.9979 61.7717 83.4843C61.348 80.9051 61.0091 78.326 60.5854 75.8274C60.5006 75.1826 59.9922 74.5378 59.6533 73.893C59.3144 74.5378 58.8059 75.2632 58.7212 75.908C58.2128 82.7589 57.7044 89.6098 57.2807 96.4608C56.9418 101.136 56.6028 105.891 56.2639 110.807C52.5356 110.807 49.0614 110.888 45.5026 110.727C45.0789 110.727 44.4858 109.84 44.2316 109.276C43.13 105.81 42.1132 102.264 41.0116 98.7981C40.8422 98.2339 40.249 97.7504 39.8254 97.1862C39.4864 97.7504 38.978 98.3146 38.978 98.9593C38.2154 105.327 37.5375 111.694 36.7749 118.142C36.6902 118.626 36.6054 119.109 36.1818 119.593C35.8428 116.53 35.5039 113.467 35.2497 110.404C34.2329 100.33 33.3008 90.2546 32.1992 80.1797C32.1145 79.535 31.5213 78.9708 31.1824 78.326C30.8435 78.8902 30.3351 79.4543 30.2503 80.0991C29.064 89.0456 27.9625 97.9922 26.8609 106.939C26.6067 108.954 26.3525 111.049 25.6746 113.145C24.8273 110.324 23.8952 107.503 23.0479 104.682C22.37 102.506 21.7768 100.33 21.0142 98.1534C20.8448 97.5892 20.2516 97.1862 19.9127 96.7832C19.6585 97.2668 19.1501 97.831 19.0653 98.3146C18.218 105.327 17.4554 112.339 16.608 119.432C16.1843 123.542 15.6759 127.653 15.1675 132.327C14.8286 131.521 14.5744 131.118 14.4897 130.796C12.795 124.59 11.0155 118.384 9.40556 112.178C8.98189 110.566 8.38874 109.84 6.52458 110.001C4.40621 110.163 2.28784 110.082 0.16947 110.163C3.78794e-08 110.646 0 111.13 0 111.694Z" fill="white" fill-opacity="0.5"/>
</svg>
